<?xml version="1.0"?>
<svg xmlns="http://www.w3.org/2000/svg" width="512" height="512" viewBox="0 0 128 128"><path d="M102.312,35.258H79.569A9.808,9.808,0,1,0,64,23.362a9.808,9.808,0,1,0-15.569,11.9H25.688a1.75,1.75,0,0,0-1.75,1.75V51.754a1.75,1.75,0,0,0,1.75,1.75h2.189v53.621a1.75,1.75,0,0,0,1.75,1.75H98.373a1.75,1.75,0,0,0,1.75-1.75V53.5h2.189a1.75,1.75,0,0,0,1.75-1.75V37.008A1.75,1.75,0,0,0,102.312,35.258ZM72.066,22.625a6.317,6.317,0,0,1,0,12.633H65.75V28.941A6.323,6.323,0,0,1,72.066,22.625ZM60.364,50V38.758h7.272V50Zm7.272,3.5v51.871H60.364V53.5ZM49.618,28.941a6.316,6.316,0,0,1,12.632,0v6.317H55.934A6.324,6.324,0,0,1,49.618,28.941Zm-22.18,9.817H56.864V50H27.438ZM31.377,53.5H56.864v51.871H31.377Zm65.246,51.871H71.136V53.5H96.623ZM100.562,50H71.136V38.758h29.426Z"/></svg>
